<svg xmlns="http://www.w3.org/2000/svg" xmlns:xlink="http://www.w3.org/1999/xlink" width="560" height="231.97"><rect width="560" height="231.97" rx="5" ry="5" class="a"/><svg y="0%" x="0%"><circle cx="20" cy="20" r="6" fill="#ff5f58"/><circle cx="40" cy="20" r="6" fill="#ffbd2e"/><circle cx="60" cy="20" r="6" fill="#18c132"/></svg><svg height="151.97" viewBox="0 0 50 15.197" width="500" x="25" xmlns="http://www.w3.org/2000/svg" xmlns:xlink="http://www.w3.org/1999/xlink" y="60"><style>@keyframes i{0%{transform:translateX(0)}7.1%{transform:translateX(-50px)}7.2%{transform:translateX(-100px)}8.5%{transform:translateX(-150px)}16.5%{transform:translateX(-200px)}17.6%{transform:translateX(-250px)}20.2%{transform:translateX(-300px)}22.9%{transform:translateX(-350px)}26.6%{transform:translateX(-400px)}29.8%{transform:translateX(-450px)}32.8%{transform:translateX(-500px)}39.3%{transform:translateX(-550px)}43.5%{transform:translateX(-600px)}44.4%{transform:translateX(-650px)}46.5%{transform:translateX(-700px)}50.6%{transform:translateX(-750px)}56.7%{transform:translateX(-800px)}57.7%{transform:translateX(-850px)}58.8%{transform:translateX(-900px)}60.5%{transform:translateX(-950px)}62.3%{transform:translateX(-1000px)}69.3%{transform:translateX(-1050px)}69.4%{transform:translateX(-1100px)}73.5%{transform:translateX(-1150px)}76.6%{transform:translateX(-1200px)}76.7%{transform:translateX(-1250px)}76.8%{transform:translateX(-1550px)}77%{transform:translateX(-1600px)}to{transform:translateX(-1650px)}}.a{fill:#000}.f{fill:#fff}</style><g font-size="1.67" font-family="Monaco,Consolas,Menlo,'Bitstream Vera Sans Mono','Powerline Symbols',monospace"><defs><symbol id="1"><text y="1.67" class="f">counsel</text><text x="8.016" y="1.67" class="f">$</text></symbol><symbol id="2"><text y="1.67" class="f">counsel</text><text x="8.016" y="1.67" class="f">$</text><text x="10.02" y="1.67" class="f">npx</text></symbol><symbol id="3"><text y="1.67" class="f">counsel</text><text x="8.016" y="1.67" class="f">$</text><text x="10.02" y="1.67" class="f">npx</text><text x="14.028" y="1.67" class="f">counsel</text></symbol><symbol id="4"><text y="1.67" class="f">counsel</text><text x="8.016" y="1.67" class="f">$</text><text x="10.02" y="1.67" class="f">npx</text><text x="14.028" y="1.67" class="f">counsel</text><text x="22.044" y="1.67" class="f">check</text></symbol><symbol id="5"><text y="1.67" class="f">info:</text><text x="6.012" y="1.67" class="f">👓</text><text x="10.02" y="1.67" class="f">loading</text><text x="18.036" y="1.67" class="f">local</text><text x="24.048" y="1.67" class="f">project</text><text x="32.064" y="1.67" class="f">settings</text></symbol><symbol id="6"><text y="1.67" class="f">info:</text><text x="6.012" y="1.67" class="f">🚬</text><text x="10.02" y="1.67" class="f">checking</text><text x="19.038" y="1.67" class="f">project</text><text x="27.054" y="1.67" class="f">with</text><text x="32.064" y="1.67" class="f">5</text><text x="34.068" y="1.67" class="f">rules</text></symbol><symbol id="7"><text y="1.67" class="f">info:</text><text x="6.012" y="1.67" class="f">✅</text><text x="9.018" y="1.67" class="f">project</text><text x="17.034" y="1.67" class="f">checks</text><text x="24.048" y="1.67" class="f">out</text></symbol><symbol id="a"><path fill="transparent" d="M0 0h50v8H0z"/></symbol><symbol id="b"><path fill="#f81ce5" d="M0 0h1.102v2.171H0z"/></symbol></defs><path class="a" d="M0 0h50v15.197H0z"/><g style="animation-duration:7.766202s;animation-iteration-count:infinite;animation-name:i;animation-timing-function:steps(1,end)"><svg width="1700"><svg><use xlink:href="#a"/><use xlink:href="#b" x="-.004"/></svg><svg x="50"><use xlink:href="#a"/><use xlink:href="#b" x="-.004"/></svg><svg x="100"><use xlink:href="#a"/><use xlink:href="#b" x="-.004"/></svg><svg x="150"><use xlink:href="#a"/><use xlink:href="#b" x="9.996"/><use xlink:href="#1"/></svg><svg x="200"><use xlink:href="#a"/><use xlink:href="#b" x="10.996"/><text y="1.67" class="f">counsel</text><text x="8.016" y="1.67" class="f">$</text><text x="10.02" y="1.67" class="f">n</text></svg><svg x="250"><use xlink:href="#a"/><use xlink:href="#b" x="11.996"/><text y="1.67" class="f">counsel</text><text x="8.016" y="1.67" class="f">$</text><text x="10.02" y="1.67" class="f">np</text></svg><svg x="300"><use xlink:href="#a"/><use xlink:href="#b" x="12.996"/><use xlink:href="#2"/></svg><svg x="350"><use xlink:href="#a"/><use xlink:href="#b" x="13.996"/><use xlink:href="#2"/></svg><svg x="400"><use xlink:href="#a"/><use xlink:href="#b" x="14.996"/><text y="1.67" class="f">counsel</text><text x="8.016" y="1.67" class="f">$</text><text x="10.02" y="1.67" class="f">npx</text><text x="14.028" y="1.67" class="f">c</text></svg><svg x="450"><use xlink:href="#a"/><use xlink:href="#b" x="15.996"/><text y="1.67" class="f">counsel</text><text x="8.016" y="1.67" class="f">$</text><text x="10.02" y="1.67" class="f">npx</text><text x="14.028" y="1.67" class="f">co</text></svg><svg x="500"><use xlink:href="#a"/><use xlink:href="#b" x="16.996"/><text y="1.67" class="f">counsel</text><text x="8.016" y="1.67" class="f">$</text><text x="10.02" y="1.67" class="f">npx</text><text x="14.028" y="1.67" class="f">cou</text></svg><svg x="550"><use xlink:href="#a"/><use xlink:href="#b" x="17.996"/><text y="1.67" class="f">counsel</text><text x="8.016" y="1.67" class="f">$</text><text x="10.02" y="1.67" class="f">npx</text><text x="14.028" y="1.67" class="f">coun</text></svg><svg x="600"><use xlink:href="#a"/><use xlink:href="#b" x="18.996"/><text y="1.67" class="f">counsel</text><text x="8.016" y="1.67" class="f">$</text><text x="10.02" y="1.67" class="f">npx</text><text x="14.028" y="1.67" class="f">couns</text></svg><svg x="650"><use xlink:href="#a"/><use xlink:href="#b" x="19.996"/><text y="1.67" class="f">counsel</text><text x="8.016" y="1.67" class="f">$</text><text x="10.02" y="1.67" class="f">npx</text><text x="14.028" y="1.67" class="f">counse</text></svg><svg x="700"><use xlink:href="#a"/><use xlink:href="#b" x="20.996"/><use xlink:href="#3"/></svg><svg x="750"><use xlink:href="#a"/><use xlink:href="#b" x="21.996"/><use xlink:href="#3"/></svg><svg x="800"><use xlink:href="#a"/><use xlink:href="#b" x="22.996"/><text y="1.67" class="f">counsel</text><text x="8.016" y="1.67" class="f">$</text><text x="10.02" y="1.67" class="f">npx</text><text x="14.028" y="1.67" class="f">counsel</text><text x="22.044" y="1.67" class="f">c</text></svg><svg x="850"><use xlink:href="#a"/><use xlink:href="#b" x="23.996"/><text y="1.67" class="f">counsel</text><text x="8.016" y="1.67" class="f">$</text><text x="10.02" y="1.67" class="f">npx</text><text x="14.028" y="1.67" class="f">counsel</text><text x="22.044" y="1.67" class="f">ch</text></svg><svg x="900"><use xlink:href="#a"/><use xlink:href="#b" x="24.996"/><text y="1.67" class="f">counsel</text><text x="8.016" y="1.67" class="f">$</text><text x="10.02" y="1.67" class="f">npx</text><text x="14.028" y="1.67" class="f">counsel</text><text x="22.044" y="1.67" class="f">che</text></svg><svg x="950"><use xlink:href="#a"/><use xlink:href="#b" x="25.996"/><text y="1.67" class="f">counsel</text><text x="8.016" y="1.67" class="f">$</text><text x="10.02" y="1.67" class="f">npx</text><text x="14.028" y="1.67" class="f">counsel</text><text x="22.044" y="1.67" class="f">chec</text></svg><svg x="1000"><use xlink:href="#a"/><use xlink:href="#b" x="26.996"/><use xlink:href="#4"/></svg><svg x="1050"><use xlink:href="#a"/><use xlink:href="#b" x="-.004" y="2.146"/><use xlink:href="#4"/></svg><svg x="1100"><use xlink:href="#a"/><use xlink:href="#b" x="-.004" y="2.146"/><use xlink:href="#4"/></svg><svg x="1150"><use xlink:href="#a"/><use xlink:href="#b" x="-.004" y="4.317"/><use xlink:href="#4"/><use xlink:href="#5" y="2.171"/></svg><svg x="1200"><use xlink:href="#a"/><use xlink:href="#b" x="-.004" y="6.488"/><use xlink:href="#4"/><use xlink:href="#5" y="2.171"/><use xlink:href="#6" y="4.342"/></svg><svg x="1250"><use xlink:href="#a"/><use xlink:href="#b" x="-.004" y="8.659"/><use xlink:href="#4"/><use xlink:href="#5" y="2.171"/><use xlink:href="#6" y="4.342"/><use xlink:href="#7" y="6.513"/></svg><svg x="1300"><use xlink:href="#a"/><use xlink:href="#b" x="-.004" y="8.659"/><use xlink:href="#4"/><use xlink:href="#5" y="2.171"/><use xlink:href="#6" y="4.342"/><use xlink:href="#7" y="6.513"/></svg><svg x="1350"><use xlink:href="#a"/><use xlink:href="#b" x="-.004" y="8.659"/><use xlink:href="#4"/><use xlink:href="#5" y="2.171"/><use xlink:href="#6" y="4.342"/><use xlink:href="#7" y="6.513"/></svg><svg x="1400"><use xlink:href="#a"/><use xlink:href="#b" x="-.004" y="8.659"/><use xlink:href="#4"/><use xlink:href="#5" y="2.171"/><use xlink:href="#6" y="4.342"/><use xlink:href="#7" y="6.513"/></svg><svg x="1450"><use xlink:href="#a"/><use xlink:href="#b" x="-.004" y="8.659"/><use xlink:href="#4"/><use xlink:href="#5" y="2.171"/><use xlink:href="#6" y="4.342"/><use xlink:href="#7" y="6.513"/></svg><svg x="1500"><use xlink:href="#a"/><use xlink:href="#b" x="-.004" y="8.659"/><use xlink:href="#4"/><use xlink:href="#5" y="2.171"/><use xlink:href="#6" y="4.342"/><use xlink:href="#7" y="6.513"/></svg><svg x="1550"><use xlink:href="#a"/><use xlink:href="#b" x="-.004" y="8.659"/><use xlink:href="#4"/><use xlink:href="#5" y="2.171"/><use xlink:href="#6" y="4.342"/><use xlink:href="#7" y="6.513"/></svg><svg x="1600"><use xlink:href="#a"/><use xlink:href="#b" x="9.996" y="8.659"/><use xlink:href="#4"/><use xlink:href="#5" y="2.171"/><use xlink:href="#6" y="4.342"/><use xlink:href="#7" y="6.513"/><use xlink:href="#1" y="8.684"/></svg><svg x="1650"><use xlink:href="#a"/><use xlink:href="#b" x="-.004" y="10.83"/><use xlink:href="#4"/><use xlink:href="#5" y="2.171"/><use xlink:href="#6" y="4.342"/><use xlink:href="#7" y="6.513"/><text y="10.354" class="f">counsel</text><text x="8.016" y="10.354" class="f">$</text><text x="10.02" y="10.354" class="f">exit</text></svg></svg></g></g></svg></svg>