<?xml version="1.0" encoding="UTF-8"?>
<!DOCTYPE svg PUBLIC "-//W3C//DTD SVG 1.1//EN" "http://www.w3.org/Graphics/SVG/1.1/DTD/svg11.dtd">
<svg version="1.1" xmlns="http://www.w3.org/2000/svg" xmlns:xlink="http://www.w3.org/1999/xlink" x="0" y="0" width="64.476" height="72.654" viewBox="0, 0, 64.476, 72.654">
  <g id="Layer_1" transform="translate(-288.716, -11.65)">
    <path d="M288.757,18.81 L310.695,18.81 L310.695,20.03 L288.757,20.03 L288.757,18.81 z" fill="#0142F2"/>
    <path d="M310.404,25.413 L310.39,40.557 L332.662,40.52 L332.634,25.4 L310.404,25.413 z" fill="#1B4958"/>
    <g>
      <path d="M288.716,11.694 L310.569,11.689 L310.569,26.153 L288.731,26.169 L288.716,11.694 z" fill="#005E25"/>
    </g>
    <g>
      <path d="M300.642,57.684 C302.498,57.684 303.83,59.212 304.11,60.044 L306.386,67.524 C306.838,69.128 304.786,69.796 304.306,68.232 L302.254,61.368 L301.074,61.368 L304.506,73.568 L301.238,73.568 L301.238,83.088 C301.238,84.712 298.794,84.704 298.794,83.088 L298.794,73.508 L297.558,73.508 L297.558,83.068 C297.558,84.712 295.102,84.712 295.102,83.068 L295.102,73.568 L291.826,73.568 L295.218,61.368 L294.094,61.368 L292.05,68.252 C291.562,69.748 289.494,69.136 289.97,67.524 L292.238,60.044 C292.482,59.192 293.562,57.684 295.43,57.684 L300.642,57.684 z" fill="#013556"/>
      <path d="M298.179,57.121 C299.635,57.121 300.827,55.933 300.827,54.473 C300.827,53.005 299.635,51.817 298.179,51.817 C296.707,51.817 295.531,53.005 295.531,54.473 C295.531,55.933 296.703,57.121 298.179,57.121" fill="#013556"/>
    </g>
    <g>
      <path d="M319.123,57.1 C320.579,57.1 321.771,55.92 321.771,54.452 C321.771,52.992 320.579,51.804 319.123,51.804 C317.663,51.804 316.475,52.992 316.475,54.452 C316.471,55.92 317.659,57.1 319.123,57.1" fill="#013556"/>
      <path d="M315.523,82.815 C315.523,83.635 316.191,84.303 317.011,84.303 C317.831,84.303 318.499,83.635 318.499,82.815 L318.499,70.343 L319.747,70.343 L319.747,82.815 C319.747,83.635 320.407,84.303 321.227,84.303 C322.047,84.303 322.715,83.635 322.715,82.815 L322.727,61.315 L323.959,61.315 L323.959,69.239 C323.959,70.839 326.039,70.839 326.031,69.239 L326.031,61.139 C326.031,59.383 324.667,57.663 322.607,57.663 L315.571,57.651 C313.695,57.651 312.187,59.191 312.187,61.091 L312.187,69.239 C312.187,70.819 314.275,70.819 314.275,69.239 L314.275,61.315 L315.535,61.315 L315.523,82.815 z" fill="#013556"/>
    </g>
    <g>
      <path d="M343.814,57.684 C345.67,57.684 347.002,59.212 347.282,60.044 L349.558,67.524 C350.01,69.128 347.958,69.796 347.478,68.232 L345.426,61.368 L344.246,61.368 L347.678,73.568 L344.41,73.568 L344.41,83.088 C344.41,84.712 341.966,84.704 341.966,83.088 L341.966,73.508 L340.73,73.508 L340.73,83.068 C340.73,84.712 338.274,84.712 338.274,83.068 L338.274,73.568 L334.998,73.568 L338.39,61.368 L337.266,61.368 L335.222,68.252 C334.734,69.748 332.666,69.136 333.142,67.524 L335.41,60.044 C335.654,59.192 336.734,57.684 338.602,57.684 L343.814,57.684 z" fill="#013556"/>
      <path d="M341.35,57.121 C342.806,57.121 343.998,55.933 343.998,54.473 C343.998,53.005 342.806,51.817 341.35,51.817 C339.878,51.817 338.702,53.005 338.702,54.473 C338.702,55.933 339.874,57.121 341.35,57.121" fill="#013556"/>
    </g>
    <g>
      <path d="M310.36,26.153 L331.793,26.231 L331.793,11.65 L310.387,11.678 L310.36,26.153 z" fill="#FCCA3D"/>
      <g>
        <path d="M316.091,24.801 C316.987,25.833 312.433,25.729 312.433,25.729 C312.387,21.451 310.952,21.104 308.875,22.205 C305.419,24.035 305.053,19.887 305.142,19.369 C305.938,14.748 310.995,19.046 311.212,18.15 L319.056,11.874 C318.677,22.636 318.974,21.653 317.472,21.65 C315.013,21.646 314.592,23.073 316.091,24.801 z" fill="#FCCA3D"/>
        <path d="M315.689,25.502 C320.281,25.883 319.484,26.411 318.231,28.26 C316.145,31.337 320.958,31.974 321.518,31.932 C326.508,31.555 322.575,27.313 322.999,26.502 C323.778,25.016 325.686,22.773 325.686,22.773 z" fill="#FCCA3D"/>
      </g>
    </g>
    <g>
      <path d="M337.174,24.452 C337.984,25.487 333.085,23.058 333.085,23.058 C333.054,18.78 332.776,19.757 330.89,20.852 C327.753,22.674 327.432,18.525 327.514,18.007 C328.247,13.388 331.915,17.181 332.114,16.286 C340.147,26.18 340.046,20.326 338.684,20.32 C336.455,20.309 335.82,22.721 337.174,24.452 z" fill="#FE7B38"/>
      <path d="M331.793,26.231 L353.154,26.231 L353.154,11.65 L331.793,11.65 L331.793,26.231 z" fill="#FE7B38"/>
    </g>
    <path d="M318.04,34.454 L317.74,48.647 L323.818,40.12 L318.04,34.454 z" fill="#1B4958"/>
    <g>
      <path d="M288.756,25.95 L288.757,40.553 L310.885,40.505 L310.613,25.699 L288.756,25.95 z" fill="#00B39D"/>
      <path d="M297.379,32.208 L297.078,46.401 L303.156,37.874 L297.379,32.208 z" fill="#00B39D"/>
      <path d="M292.636,30.277 C291.604,31.072 292.694,27.276 292.694,27.276 C296.972,27.235 297.319,25.963 296.218,24.121 C294.388,21.057 298.536,20.733 299.054,20.812 C303.675,21.518 299.377,26.001 300.273,26.193 L306.549,33.148 C295.787,32.812 296.77,33.076 296.773,31.744 C296.777,29.563 294.364,28.948 292.636,30.277 z" fill="#00B39D"/>
    </g>
    <g>
      <path d="M331.793,26.043 L331.751,40.581 L353.193,40.52 L353.154,26.043 L331.793,26.043 z" fill="#FF5A47"/>
      <path d="M333.663,28.185 C333.692,33.187 333.094,32.364 331.139,31.144 C327.885,29.116 327.614,33.976 327.706,34.58 C328.526,39.956 332.432,34.919 332.648,35.96 C332.867,37.007 333.328,38.242 333.328,38.242 z" fill="#FF5A47"/>
      <path d="M344.652,33.892 L344.953,48.085 L337.395,36.954 L344.652,33.892 z" fill="#FF5A47"/>
      <path d="M348.465,27.253 C343.462,27.282 344.286,26.684 345.505,24.728 C347.534,21.475 342.673,21.203 342.07,21.295 C336.693,22.115 341.731,26.021 340.69,26.238 C339.643,26.456 338.407,26.918 338.407,26.918 z" fill="#FF5A47"/>
    </g>
  </g>
</svg>
