<svg xmlns="http://www.w3.org/2000/svg" xmlns:xlink="http://www.w3.org/1999/xlink" width="860" height="231.97"><rect width="860" height="231.97" rx="5" ry="5" class="a"/><svg y="0%" x="0%"><circle cx="20" cy="20" r="6" fill="#ff5f58"/><circle cx="40" cy="20" r="6" fill="#ffbd2e"/><circle cx="60" cy="20" r="6" fill="#18c132"/></svg><svg height="151.97" viewBox="0 0 80 15.197" width="800" x="25" xmlns="http://www.w3.org/2000/svg" xmlns:xlink="http://www.w3.org/1999/xlink" y="60"><style>@keyframes i{0%{transform:translateX(0)}6.9%{transform:translateX(-160px)}8%{transform:translateX(-320px)}8.1%{transform:translateX(-400px)}14.2%{transform:translateX(-480px)}15.2%{transform:translateX(-560px)}17.3%{transform:translateX(-640px)}18.6%{transform:translateX(-720px)}19.8%{transform:translateX(-800px)}20.6%{transform:translateX(-880px)}22.1%{transform:translateX(-960px)}23.1%{transform:translateX(-1040px)}24.5%{transform:translateX(-1120px)}29.8%{transform:translateX(-1200px)}31.8%{transform:translateX(-1280px)}33.3%{transform:translateX(-1360px)}34.8%{transform:translateX(-1440px)}35.5%{transform:translateX(-1520px)}36.4%{transform:translateX(-1600px)}37.6%{transform:translateX(-1680px)}38.7%{transform:translateX(-1760px)}46.7%{transform:translateX(-1840px)}46.8%{transform:translateX(-1920px)}50.6%{transform:translateX(-2000px)}53.6%{transform:translateX(-2080px)}53.7%{transform:translateX(-2160px)}53.8%{transform:translateX(-2640px)}54%{transform:translateX(-2720px)}to{transform:translateX(-2800px)}}.a{fill:#000}.f{fill:#fff}</style><g font-size="1.67" font-family="Monaco,Consolas,Menlo,'Bitstream Vera Sans Mono','Powerline Symbols',monospace"><defs><symbol id="1"><text y="1.67" class="f">counsel</text><text x="8.016" y="1.67" class="f">$</text></symbol><symbol id="2"><text y="1.67" class="f">counsel</text><text x="8.016" y="1.67" class="f">$</text><text x="10.02" y="1.67" class="f">npx</text></symbol><symbol id="3"><text y="1.67" class="f">counsel</text><text x="8.016" y="1.67" class="f">$</text><text x="10.02" y="1.67" class="f">npx</text><text x="14.028" y="1.67" class="f">counsel</text></symbol><symbol id="4"><text y="1.67" class="f">counsel</text><text x="8.016" y="1.67" class="f">$</text><text x="10.02" y="1.67" class="f">npx</text><text x="14.028" y="1.67" class="f">counsel</text><text x="22.044" y="1.67" class="f">check</text></symbol><symbol id="5"><text y="1.67" class="f">info:</text><text x="6.012" y="1.67" class="f">👓</text><text x="10.02" y="1.67" class="f">loading</text><text x="18.036" y="1.67" class="f">local</text><text x="24.048" y="1.67" class="f">project</text><text x="32.064" y="1.67" class="f">settings</text></symbol><symbol id="6"><text y="1.67" class="f">info:</text><text x="6.012" y="1.67" class="f">🚬</text><text x="10.02" y="1.67" class="f">checking</text><text x="19.038" y="1.67" class="f">project</text><text x="27.054" y="1.67" class="f">with</text><text x="32.064" y="1.67" class="f">5</text><text x="34.068" y="1.67" class="f">rules</text></symbol><symbol id="7"><text y="1.67" class="f">error:</text><text x="7.014" y="1.67" class="f">check</text><text x="13.026" y="1.67" class="f">failure</text><text x="21.042" y="1.67" class="f">on</text><text x="24.048" y="1.67" class="f">rule</text><text x="29.058" y="1.67" class="f">&quot;assert-readme-exists&quot;:</text><text x="53.106" y="1.67" class="f">readme.md</text><text x="63.126" y="1.67" class="f">file</text><text x="68.136" y="1.67" class="f">missing</text></symbol><symbol id="a"><path fill="transparent" d="M0 0h80v8H0z"/></symbol><symbol id="b"><path fill="#f81ce5" d="M0 0h1.102v2.171H0z"/></symbol></defs><path class="a" d="M0 0h80v15.197H0z"/><g style="animation-duration:8.242062s;animation-iteration-count:infinite;animation-name:i;animation-timing-function:steps(1,end)"><svg width="2880"><svg><use xlink:href="#a"/><use xlink:href="#b" x="-.004"/></svg><svg x="80"><use xlink:href="#a"/><use xlink:href="#b" x="-.004"/></svg><svg x="160"><use xlink:href="#a"/><use xlink:href="#b" x="-.004"/></svg><svg x="240"><use xlink:href="#a"/><use xlink:href="#b" x="-.004"/></svg><svg x="320"><use xlink:href="#a"/><use xlink:href="#b" x="-.004"/></svg><svg x="400"><use xlink:href="#a"/><use xlink:href="#b" x="9.996"/><use xlink:href="#1"/></svg><svg x="480"><use xlink:href="#a"/><use xlink:href="#b" x="10.996"/><text y="1.67" class="f">counsel</text><text x="8.016" y="1.67" class="f">$</text><text x="10.02" y="1.67" class="f">n</text></svg><svg x="560"><use xlink:href="#a"/><use xlink:href="#b" x="11.996"/><text y="1.67" class="f">counsel</text><text x="8.016" y="1.67" class="f">$</text><text x="10.02" y="1.67" class="f">np</text></svg><svg x="640"><use xlink:href="#a"/><use xlink:href="#b" x="12.996"/><use xlink:href="#2"/></svg><svg x="720"><use xlink:href="#a"/><use xlink:href="#b" x="13.996"/><use xlink:href="#2"/></svg><svg x="800"><use xlink:href="#a"/><use xlink:href="#b" x="14.996"/><text y="1.67" class="f">counsel</text><text x="8.016" y="1.67" class="f">$</text><text x="10.02" y="1.67" class="f">npx</text><text x="14.028" y="1.67" class="f">c</text></svg><svg x="880"><use xlink:href="#a"/><use xlink:href="#b" x="15.996"/><text y="1.67" class="f">counsel</text><text x="8.016" y="1.67" class="f">$</text><text x="10.02" y="1.67" class="f">npx</text><text x="14.028" y="1.67" class="f">co</text></svg><svg x="960"><use xlink:href="#a"/><use xlink:href="#b" x="16.996"/><text y="1.67" class="f">counsel</text><text x="8.016" y="1.67" class="f">$</text><text x="10.02" y="1.67" class="f">npx</text><text x="14.028" y="1.67" class="f">cou</text></svg><svg x="1040"><use xlink:href="#a"/><use xlink:href="#b" x="17.996"/><text y="1.67" class="f">counsel</text><text x="8.016" y="1.67" class="f">$</text><text x="10.02" y="1.67" class="f">npx</text><text x="14.028" y="1.67" class="f">coun</text></svg><svg x="1120"><use xlink:href="#a"/><use xlink:href="#b" x="18.996"/><text y="1.67" class="f">counsel</text><text x="8.016" y="1.67" class="f">$</text><text x="10.02" y="1.67" class="f">npx</text><text x="14.028" y="1.67" class="f">couns</text></svg><svg x="1200"><use xlink:href="#a"/><use xlink:href="#b" x="19.996"/><text y="1.67" class="f">counsel</text><text x="8.016" y="1.67" class="f">$</text><text x="10.02" y="1.67" class="f">npx</text><text x="14.028" y="1.67" class="f">counse</text></svg><svg x="1280"><use xlink:href="#a"/><use xlink:href="#b" x="20.996"/><use xlink:href="#3"/></svg><svg x="1360"><use xlink:href="#a"/><use xlink:href="#b" x="21.996"/><use xlink:href="#3"/></svg><svg x="1440"><use xlink:href="#a"/><use xlink:href="#b" x="22.996"/><text y="1.67" class="f">counsel</text><text x="8.016" y="1.67" class="f">$</text><text x="10.02" y="1.67" class="f">npx</text><text x="14.028" y="1.67" class="f">counsel</text><text x="22.044" y="1.67" class="f">c</text></svg><svg x="1520"><use xlink:href="#a"/><use xlink:href="#b" x="23.996"/><text y="1.67" class="f">counsel</text><text x="8.016" y="1.67" class="f">$</text><text x="10.02" y="1.67" class="f">npx</text><text x="14.028" y="1.67" class="f">counsel</text><text x="22.044" y="1.67" class="f">ch</text></svg><svg x="1600"><use xlink:href="#a"/><use xlink:href="#b" x="24.996"/><text y="1.67" class="f">counsel</text><text x="8.016" y="1.67" class="f">$</text><text x="10.02" y="1.67" class="f">npx</text><text x="14.028" y="1.67" class="f">counsel</text><text x="22.044" y="1.67" class="f">che</text></svg><svg x="1680"><use xlink:href="#a"/><use xlink:href="#b" x="25.996"/><text y="1.67" class="f">counsel</text><text x="8.016" y="1.67" class="f">$</text><text x="10.02" y="1.67" class="f">npx</text><text x="14.028" y="1.67" class="f">counsel</text><text x="22.044" y="1.67" class="f">chec</text></svg><svg x="1760"><use xlink:href="#a"/><use xlink:href="#b" x="26.996"/><use xlink:href="#4"/></svg><svg x="1840"><use xlink:href="#a"/><use xlink:href="#b" x="-.004" y="2.146"/><use xlink:href="#4"/></svg><svg x="1920"><use xlink:href="#a"/><use xlink:href="#b" x="-.004" y="2.146"/><use xlink:href="#4"/></svg><svg x="2000"><use xlink:href="#a"/><use xlink:href="#b" x="-.004" y="4.317"/><use xlink:href="#4"/><use xlink:href="#5" y="2.171"/></svg><svg x="2080"><use xlink:href="#a"/><use xlink:href="#b" x="-.004" y="6.488"/><use xlink:href="#4"/><use xlink:href="#5" y="2.171"/><use xlink:href="#6" y="4.342"/></svg><svg x="2160"><use xlink:href="#a"/><use xlink:href="#b" x="-.004" y="8.659"/><use xlink:href="#4"/><use xlink:href="#5" y="2.171"/><use xlink:href="#6" y="4.342"/><use xlink:href="#7" y="6.513"/></svg><svg x="2240"><use xlink:href="#a"/><use xlink:href="#b" x="-.004" y="8.659"/><use xlink:href="#4"/><use xlink:href="#5" y="2.171"/><use xlink:href="#6" y="4.342"/><use xlink:href="#7" y="6.513"/></svg><svg x="2320"><use xlink:href="#a"/><use xlink:href="#b" x="-.004" y="8.659"/><use xlink:href="#4"/><use xlink:href="#5" y="2.171"/><use xlink:href="#6" y="4.342"/><use xlink:href="#7" y="6.513"/></svg><svg x="2400"><use xlink:href="#a"/><use xlink:href="#b" x="-.004" y="8.659"/><use xlink:href="#4"/><use xlink:href="#5" y="2.171"/><use xlink:href="#6" y="4.342"/><use xlink:href="#7" y="6.513"/></svg><svg x="2480"><use xlink:href="#a"/><use xlink:href="#b" x="-.004" y="8.659"/><use xlink:href="#4"/><use xlink:href="#5" y="2.171"/><use xlink:href="#6" y="4.342"/><use xlink:href="#7" y="6.513"/></svg><svg x="2560"><use xlink:href="#a"/><use xlink:href="#b" x="-.004" y="8.659"/><use xlink:href="#4"/><use xlink:href="#5" y="2.171"/><use xlink:href="#6" y="4.342"/><use xlink:href="#7" y="6.513"/></svg><svg x="2640"><use xlink:href="#a"/><use xlink:href="#b" x="-.004" y="8.659"/><use xlink:href="#4"/><use xlink:href="#5" y="2.171"/><use xlink:href="#6" y="4.342"/><use xlink:href="#7" y="6.513"/></svg><svg x="2720"><use xlink:href="#a"/><use xlink:href="#b" x="9.996" y="8.659"/><use xlink:href="#4"/><use xlink:href="#5" y="2.171"/><use xlink:href="#6" y="4.342"/><use xlink:href="#7" y="6.513"/><use xlink:href="#1" y="8.684"/></svg><svg x="2800"><use xlink:href="#a"/><use xlink:href="#b" x="-.004" y="10.83"/><use xlink:href="#4"/><use xlink:href="#5" y="2.171"/><use xlink:href="#6" y="4.342"/><use xlink:href="#7" y="6.513"/><text y="10.354" class="f">counsel</text><text x="8.016" y="10.354" class="f">$</text><text x="10.02" y="10.354" class="f">exit</text></svg></svg></g></g></svg></svg>